<?xml version="1.0" encoding="UTF-8"?>
<svg id="Layer_1" data-name="Layer 1" xmlns="http://www.w3.org/2000/svg" version="1.1" viewBox="0 0 1024 304.59">
  <defs>
    <style>
      .cls-1 {
        fill: #ca5050;
      }

      .cls-1, .cls-2 {
        stroke-width: 0px;
      }

      .cls-2 {
        fill: #fff;
      }
    </style>
  </defs>
  <g>
    <path class="cls-2" d="M287.46,149.81c-11.15,0-20.84-1.77-29.09-5.3-8.25-3.53-14.68-8.77-19.28-15.71-4.61-6.94-7.04-15.48-7.28-25.63h27.74c.37,4.82,1.77,8.85,4.2,12.09,2.43,3.25,5.66,5.67,9.71,7.28,4.05,1.61,8.62,2.41,13.73,2.41s9.54-.75,13.31-2.26c3.77-1.51,6.71-3.65,8.82-6.41,2.12-2.76,3.18-5.97,3.18-9.64,0-3.28-.95-6.02-2.85-8.24-1.9-2.22-4.62-4.13-8.17-5.73-3.55-1.6-7.88-3.02-12.98-4.24l-15.31-3.95c-11.77-2.95-20.98-7.6-27.64-13.93-6.66-6.33-9.99-14.7-9.99-25.1,0-8.67,2.26-16.25,6.77-22.74,4.51-6.49,10.71-11.53,18.58-15.13,7.88-3.6,16.86-5.4,26.94-5.4s19.24,1.82,26.89,5.44c7.66,3.63,13.63,8.67,17.93,15.13,4.3,6.46,6.5,13.89,6.63,22.31h-27.55c-.5-5.78-2.88-10.25-7.14-13.4-4.27-3.15-9.95-4.72-17.04-4.72-4.79,0-8.9.71-12.33,2.12-3.42,1.41-6.02,3.37-7.8,5.88-1.77,2.51-2.66,5.37-2.66,8.58,0,3.53,1.03,6.47,3.08,8.82,2.05,2.35,4.79,4.24,8.22,5.69,3.42,1.45,7.06,2.65,10.93,3.61l12.61,3.18c5.85,1.35,11.3,3.18,16.34,5.49,5.04,2.31,9.46,5.16,13.26,8.53,3.8,3.37,6.74,7.37,8.83,12,2.08,4.63,3.13,9.96,3.13,16,0,8.67-2.12,16.24-6.35,22.7-4.23,6.46-10.37,11.45-18.4,14.99-8.03,3.53-17.68,5.3-28.95,5.3Z"/>
    <path class="cls-2" d="M405.22,39.95v22.07h-61.91v-22.07h61.91ZM357.69,14.31h28.02v101.86c0,3.41.73,5.93,2.19,7.57,1.46,1.64,3.91,2.46,7.33,2.46,1.06,0,2.55-.14,4.48-.43,1.93-.29,3.39-.56,4.39-.82l4.02,21.68c-3.11.96-6.21,1.64-9.29,2.02-3.08.39-6.02.58-8.82.58-10.46,0-18.46-2.63-24-7.9-5.54-5.27-8.31-12.82-8.31-22.65V14.31Z"/>
    <path class="cls-2" d="M415.78,147.69V39.95h27.08v18.79h1.12c1.93-6.68,5.15-11.72,9.67-15.13,4.51-3.4,9.7-5.11,15.55-5.11,1.43,0,2.99.08,4.67.24,1.68.16,3.14.4,4.39.72v25.83c-1.25-.45-3.05-.8-5.42-1.06-2.37-.26-4.61-.39-6.72-.39-4.23,0-8.06.95-11.49,2.84-3.42,1.9-6.09,4.53-7.98,7.9-1.9,3.37-2.85,7.31-2.85,11.81v61.29h-28.02Z"/>
    <path class="cls-2" d="M528.04,149.81c-10.46,0-19.52-2.33-27.18-6.99-7.66-4.66-13.56-11.15-17.7-19.47-4.14-8.32-6.21-18-6.21-29.06s2.07-20.93,6.21-29.25c4.14-8.32,10.04-14.81,17.7-19.47,7.66-4.66,16.72-6.99,27.18-6.99s19.59,2.33,27.22,6.99c7.63,4.66,13.51,11.15,17.65,19.47,4.14,8.32,6.21,18.07,6.21,29.25s-2.07,20.74-6.21,29.06c-4.14,8.32-10.02,14.81-17.65,19.47-7.63,4.66-16.7,6.99-27.22,6.99ZM528.04,127.06c4.98,0,9.15-1.43,12.51-4.29,3.36-2.86,5.88-6.78,7.56-11.76,1.68-4.98,2.52-10.58,2.52-16.82s-.84-12.01-2.52-16.96c-1.68-4.95-4.2-8.83-7.56-11.66-3.36-2.83-7.53-4.24-12.51-4.24s-9.14,1.41-12.47,4.24c-3.33,2.83-5.84,6.71-7.52,11.66-1.68,4.95-2.52,10.6-2.52,16.96s.84,11.84,2.52,16.82c1.68,4.98,4.19,8.9,7.52,11.76,3.33,2.86,7.49,4.29,12.47,4.29Z"/>
    <path class="cls-2" d="M619,85.34v62.35h-28.02V39.95h26.43l.47,26.89h-1.68c2.74-8.99,6.89-15.95,12.47-20.86,5.57-4.92,12.78-7.37,21.62-7.37,7.22,0,13.52,1.62,18.91,4.87,5.38,3.25,9.56,7.9,12.51,13.97,2.96,6.07,4.44,13.32,4.44,21.73v68.52h-28.01v-63.51c0-6.68-1.67-11.92-5-15.71-3.33-3.79-7.95-5.69-13.87-5.69-3.92,0-7.42.88-10.51,2.65-3.08,1.77-5.48,4.32-7.19,7.66-1.71,3.34-2.57,7.42-2.57,12.24Z"/>
    <path class="cls-2" d="M702.4,147.69V4.1h28.02v143.59h-28.02ZM727.8,116.17v-34.79h4.2l34.18-41.44h32.4l-45.1,54.06h-6.63l-19.05,22.17ZM767.58,147.69l-31.38-47.22,18.77-20.53,45.57,67.75h-32.96Z"/>
  </g>
  <path class="cls-2" d="M197.92,149.6V50.75c0-12.21-8.44-13.71-18.8-13.71s-18.8,1.51-18.8,13.71v241.71c0,12.21,8.44,11.75,18.8,11.75s18.8.45,18.8-11.75v-98.85"/>
  <path class="cls-2" d="M154.64,149.23V50.38c0-12.21-8.44-13.71-18.8-13.71s-18.8,1.51-18.8,13.71v241.71c0,12.21,8.44,11.75,18.8,11.75s18.8.45,18.8-11.75v-98.85"/>
  <path class="cls-2" d="M111.32,149.23V50.38c0-12.21-8.44-13.71-18.8-13.71s-18.8,1.51-18.8,13.71v241.71c0,12.21,8.44,11.75,18.8,11.75s18.8.45,18.8-11.75v-98.85"/>
  <path class="cls-2" d="M68,153.07v-82.53c0-10.19-8.44-11.45-18.8-11.45s-18.8,1.26-18.8,11.45v201.81c0,10.19,8.44,9.81,18.8,9.81s18.8.38,18.8-9.81v-82.53"/>
  <path class="cls-2" d="M996.59,153.45v-82.53c0-10.19-8.44-11.45-18.8-11.45s-18.8,1.26-18.8,11.45v201.81c0,10.19,8.44,9.81,18.8,9.81s18.8.38,18.8-9.81v-82.53"/>
  <path class="cls-2" d="M288.84,149.23"/>
  <path class="cls-2" d="M953.98,149.98V51.13c0-12.21-8.44-13.71-18.8-13.71s-18.8,1.51-18.8,13.71v241.71c0,12.21,8.44,11.75,18.8,11.75s18.8.45,18.8-11.75v-98.85"/>
  <path class="cls-2" d="M910.69,149.6V50.75c0-12.21-8.44-13.71-18.8-13.71s-18.8,1.51-18.8,13.71v241.71c0,12.21,8.44,11.75,18.8,11.75s18.8.45,18.8-11.75v-98.85"/>
  <path class="cls-2" d="M867.38,149.6V50.75c0-12.21-8.44-13.71-18.8-13.71s-18.8,1.51-18.8,13.71v241.71c0,12.21,8.44,11.75,18.8,11.75s18.8.45,18.8-11.75v-98.85"/>
  <path class="cls-2" d="M1044.9,149.6"/>
  <rect class="cls-2" x="197.92" y="158.28" width="665.5" height="25.45"/>
  <rect class="cls-2" x="979.28" y="157.53" width="34.81" height="25.45" rx="4.63" ry="4.63"/>
  <rect class="cls-2" x="13" y="158.28" width="34.81" height="25.45" rx="4.63" ry="4.63"/>
  <ellipse class="cls-1" cx="528.12" cy="93.18" rx="11.92" ry="16.14"/>
</svg>